<svg xmlns="http://www.w3.org/2000/svg" width="256" height="256" viewBox="0 0 100 100"><rect width="100" height="100" rx="50" fill="#7d6ee7"></rect><path d="M22.23 69.22Q20.96 69.22 19.23 68.31Q17.50 67.41 16.20 66.14Q14.91 64.88 14.91 64.05L14.91 64.05Q14.86 63.17 15.43 60.34Q16.01 57.51 16.18 56.68L16.18 56.68Q16.40 55.58 17.00 52.64Q17.61 49.70 17.99 47.17L17.99 47.17L18.43 44.58Q19.48 38.42 20.38 34.57Q21.29 30.72 22.23 30.72L22.23 30.72Q23.16 30.72 24.78 31.49Q26.41 32.26 27.84 33.44Q29.27 34.63 29.76 35.67L29.76 35.67Q30.64 37.65 32.07 44.14L32.07 44.14Q33.06 48.65 33.56 50.36L33.56 50.36Q35.92 46.78 39.61 39.41L39.61 39.41Q41.97 34.74 43.21 32.73Q44.45 30.72 45.44 30.72L45.44 30.72Q46.48 30.72 48.27 31.66Q50.06 32.59 51.40 33.86Q52.75 35.12 52.75 36.06L52.75 36.06Q52.75 36.83 52.09 40.38Q51.43 43.92 51.27 44.80L51.27 44.80L49.84 52.56Q49.29 55.80 48.68 61.08L48.68 61.08Q48.13 65.59 47.72 67.41Q47.31 69.22 46.43 69.22L46.43 69.22Q45.16 69.22 43.43 68.31Q41.70 67.41 40.40 66.14Q39.11 64.88 39.11 64.05L39.11 64.05Q39.06 63.34 39.52 61Q39.99 58.66 40.60 55.69L40.60 55.69Q41.09 53.33 41.15 53.00L41.15 53.00L43.13 46.89L42.36 46.62L41.81 47.72Q39.66 52.12 38.37 54.56Q37.08 57.01 36.25 58.06L36.25 58.06Q35.70 58.72 34.27 59.13Q32.84 59.54 31.47 59.54L31.47 59.54Q30.04 59.54 29.54 59.05L29.54 59.05Q29.05 58.61 28.69 57.20Q28.33 55.80 27.73 52.83L27.73 52.83Q27.62 52.23 27.12 49.89Q26.63 47.55 26.02 45.63L26.02 45.63L25.64 52.56Q25.09 55.80 24.48 61.08L24.48 61.08Q23.93 65.59 23.52 67.41Q23.11 69.22 22.23 69.22L22.23 69.22ZM77.67 69.55Q73.76 67.30 70.74 63.94Q67.71 60.59 65.84 56.30L65.84 56.30L65.62 58.61Q65.07 63.94 64.55 66.58Q64.03 69.22 63.09 69.22L63.09 69.22Q61.83 69.22 60.09 68.29Q58.36 67.35 57.07 66.09Q55.78 64.82 55.78 64.00L55.78 64.00Q55.78 62.57 58.47 49.42L58.47 49.42Q58.80 47.88 59.54 44.17Q60.29 40.46 60.56 38.81L60.56 38.81L58.53 39.14Q56.82 37.54 56.82 35.12L56.82 35.12Q56.82 33.42 57.76 31.60L57.76 31.60Q62.21 30.45 66.78 30.45L66.78 30.45Q71.62 30.45 75.77 31.71Q79.92 32.98 82.51 35.59Q85.09 38.20 85.09 42.11L85.09 42.11Q85.09 46.67 81.52 49.94Q77.94 53.22 71.01 54.32L71.01 54.32Q73.76 56.90 76.54 58.47Q79.32 60.04 83.55 61.47L83.55 61.47Q83.77 62.35 83.77 63.39L83.77 63.39Q83.77 65.92 82.23 67.57Q80.69 69.22 77.67 69.55L77.67 69.55ZM66.89 48.98Q71.23 48.54 74.01 46.67Q76.79 44.80 76.79 42.22L76.79 42.22Q76.79 40.57 75.16 39.44Q73.54 38.31 70.79 38.31L70.79 38.31Q69.80 38.31 68.65 38.48L68.65 38.48Q67.77 43.54 67.82 43.32L67.82 43.32Q67.33 46.01 66.89 48.98L66.89 48.98Z" fill="#fff"></path></svg>